<svg width="190" height="48" viewBox="0 0 190 48" fill="none" xmlns="http://www.w3.org/2000/svg">
<g id="&#208;&#155;&#208;&#190;&#208;&#179;&#208;&#190;">
<g id="_2243895274448">
<path id="Vector" d="M80.6031 31.229C78.5011 33.3111 75.9427 34.3521 72.9279 34.3521C69.9131 34.3521 67.3547 33.3111 65.2526 31.229C63.1506 29.147 62.0996 26.5786 62.0996 23.5238C62.0996 20.4691 63.1506 17.9007 65.2526 15.8186C67.3547 13.7366 69.9131 12.6956 72.9279 12.6956C75.9427 12.6956 78.5011 13.7366 80.6031 15.8186C82.7051 17.9007 83.7561 20.4691 83.7561 23.5238C83.7561 26.5786 82.7051 29.147 80.6031 31.229ZM68.5989 27.9861C69.7598 29.1353 71.2023 29.7116 72.9279 29.7116C74.6535 29.7116 76.0959 29.137 77.2569 27.9861C78.4178 26.8351 78.9974 25.3477 78.9974 23.5238C78.9974 21.6983 78.4178 20.2109 77.2569 19.0616C76.0959 17.9123 74.6535 17.336 72.9279 17.336C71.2023 17.336 69.7598 17.9106 68.5989 19.0616C67.438 20.2126 66.8583 21.7 66.8583 23.5238C66.8583 25.3477 67.438 26.8368 68.5989 27.9861ZM100.567 33.9357H95.5089L90.7485 27.3748V33.9357H86.2862V13.1103H90.7485V25.5759L95.2107 19.0599H100.417L95.0025 26.497L100.566 33.934L100.567 33.9357ZM105.298 28.2825C105.814 29.6717 107.003 30.3646 108.867 30.3646C110.076 30.3646 111.029 29.9881 111.724 29.2336L115.293 31.2857C113.826 33.3277 111.664 34.3504 108.807 34.3504C106.309 34.3504 104.31 33.6076 102.813 32.1185C101.315 30.6311 100.567 28.7572 100.567 26.4953C100.567 24.2534 101.307 22.3845 102.784 20.8871C104.262 19.3897 106.161 18.6402 108.481 18.6402C110.643 18.6402 112.443 19.3897 113.881 20.8871C115.318 22.3845 116.038 24.2534 116.038 26.4953C116.038 27.1299 115.978 27.7245 115.86 28.2809H105.298V28.2825ZM105.208 24.9513H111.604C111.167 23.3839 110.116 22.6011 108.451 22.6011C106.725 22.6011 105.644 23.3839 105.208 24.9513ZM127.342 19.0599H132.103L127.014 33.4893C126.181 35.8295 125.085 37.5051 123.726 38.5178C122.367 39.5289 120.637 39.9853 118.535 39.8853V35.7196C119.566 35.7196 120.36 35.5364 120.915 35.1699C121.469 34.8035 121.916 34.1639 122.254 33.2511L116.333 19.0599H121.241L124.544 28.1643L127.341 19.0599H127.342ZM163.43 32.0768C161.903 33.5942 160.039 34.3521 157.837 34.3521C155.635 34.3521 153.771 33.5942 152.244 32.0768C150.716 30.5595 149.953 28.7006 149.953 26.4986C149.953 24.2967 150.716 22.4378 152.244 20.9204C153.771 19.4031 155.635 18.6452 157.837 18.6452C160.039 18.6452 161.903 19.4031 163.43 20.9204C164.957 22.4378 165.72 24.2967 165.72 26.4986C165.72 28.7006 164.956 30.5595 163.43 32.0768ZM155.397 29.0271C156.051 29.6817 156.864 30.0081 157.837 30.0081C158.81 30.0081 159.622 29.6817 160.277 29.0271C160.932 28.3725 161.258 27.5297 161.258 26.4986C161.258 25.4676 160.932 24.6248 160.277 23.9702C159.622 23.3156 158.81 22.9892 157.837 22.9892C156.864 22.9892 156.051 23.3156 155.397 23.9702C154.742 24.6248 154.416 25.4676 154.416 26.4986C154.416 27.5297 154.742 28.3725 155.397 29.0271ZM172.176 23.4039C172.176 23.702 172.429 23.9436 172.934 24.1334C173.44 24.3217 174.05 24.5099 174.763 24.6981C175.477 24.8863 176.19 25.1295 176.905 25.4276C177.619 25.7258 178.229 26.2155 178.734 26.9001C179.24 27.5846 179.492 28.4424 179.492 29.4735C179.492 31.0808 178.897 32.295 177.706 33.1179C176.517 33.9407 175.048 34.3521 173.304 34.3521C170.169 34.3521 168.037 33.1728 166.908 30.8126L170.775 28.6107C171.172 29.7816 172.015 30.3662 173.304 30.3662C174.375 30.3662 174.911 30.0581 174.911 29.4435C174.911 29.147 174.658 28.8988 174.153 28.7006C173.647 28.5024 173.037 28.3092 172.324 28.121C171.61 27.9328 170.897 27.6846 170.182 27.3764C169.468 27.0683 168.858 26.5886 168.354 25.934C167.847 25.2794 167.596 24.4766 167.596 23.5238C167.596 21.9765 168.155 20.7772 169.276 19.9244C170.397 19.0716 171.781 18.6452 173.427 18.6452C174.656 18.6452 175.777 18.9184 176.79 19.463C177.801 20.0077 178.616 20.7972 179.23 21.8282L175.423 23.8803C174.946 23.0075 174.282 22.5711 173.429 22.5711C172.596 22.5711 172.18 22.8492 172.18 23.4039H172.176ZM189.997 23.3439H186.932V28.6107C186.932 29.2053 187.17 29.5817 187.647 29.7416C188.123 29.8999 188.906 29.9498 189.997 29.8899V33.9357C187.16 34.2338 185.196 33.9607 184.105 33.1179C183.014 32.2751 182.47 30.7727 182.47 28.6107V23.3439H180.09V19.0599H182.47V16.2334L186.932 14.8942V19.0599H189.997V23.3439ZM141.175 13.1086C143.219 13.1086 144.943 13.8032 146.352 15.1907C147.76 16.5798 148.464 18.2654 148.464 20.2475C148.464 22.2313 147.76 23.9169 146.352 25.3061C144.943 26.6952 143.219 27.3881 141.175 27.3881H138.052V33.934H133.292V13.1086H141.175ZM141.175 22.9259C141.908 22.9259 142.515 22.6677 142.989 22.153C143.466 21.6367 143.704 21.0021 143.704 20.2492C143.704 19.4947 143.466 18.8601 142.989 18.3454C142.513 17.8307 141.908 17.5725 141.175 17.5725H138.052V22.9275H141.175V22.9259Z" fill="#2B2A29"/>
<path id="Vector_2" fill-rule="evenodd" clip-rule="evenodd" d="M23.8852 0C37.077 0 47.7703 10.6934 47.7703 23.8852C47.7703 37.077 37.077 47.7703 23.8852 47.7703C10.6934 47.7703 0 37.077 0 23.8852C0 10.6934 10.6934 0 23.8852 0ZM23.8852 9.30089C31.9401 9.30089 38.4694 15.8302 38.4694 23.8852C38.4694 31.9401 31.9401 38.4694 23.8852 38.4694C15.8302 38.4694 9.30089 31.9401 9.30089 23.8852C9.30089 15.8302 15.8302 9.30089 23.8852 9.30089Z" fill="url(#paint0_linear_10402_1547)"/>
<path id="Vector_3" opacity="0.2" fill-rule="evenodd" clip-rule="evenodd" d="M40.4714 41.0711C38.4743 42.9983 36.1408 44.5823 33.5707 45.7233L26.6816 38.1996C29.5832 37.6366 32.1766 36.2142 34.1886 34.2087L40.4731 41.0711H40.4714Z" fill="#1F2428"/>
<path id="Vector_4" fill-rule="evenodd" clip-rule="evenodd" d="M51.0882 0.25313L42.357 8.74119C40.2766 6.2061 37.6832 4.10574 34.7367 2.6L37.1685 0.251465H51.0882V0.25313ZM35.6495 15.2621L27.3646 23.3155L49.8856 47.1773H36.5922L13.6931 22.9157L27.363 9.71891C30.7392 10.5451 33.6524 12.5455 35.6478 15.2621H35.6495Z" fill="url(#paint1_linear_10402_1547)"/>
<path id="Vector_5" opacity="0.2" fill-rule="evenodd" clip-rule="evenodd" d="M26.6084 10.4485C29.9796 11.2847 32.8878 13.2918 34.8749 16.0151L35.6494 15.2622C33.654 12.5456 30.7408 10.5451 27.3646 9.71899L26.6084 10.4485Z" fill="#1F2428"/>
</g>
</g>
<defs>
<linearGradient id="paint0_linear_10402_1547" x1="0.612057" y1="47.7703" x2="54.7001" y2="37.8739" gradientUnits="userSpaceOnUse">
<stop stop-color="#5B52A3"/>
<stop offset="1" stop-color="#40B8EA"/>
</linearGradient>
<linearGradient id="paint1_linear_10402_1547" x1="13.6931" y1="22.9157" x2="49.9522" y2="22.9157" gradientUnits="userSpaceOnUse">
<stop stop-color="#54E1AB"/>
<stop offset="1" stop-color="#7EEEC1"/>
</linearGradient>
</defs>
</svg>
