<svg width="190" height="48" viewBox="0 0 190 48" fill="none" xmlns="http://www.w3.org/2000/svg">
<g id="&#208;&#155;&#208;&#190;&#208;&#179;&#208;&#190;">
<g id="_2243895274448">
<path id="Vector" d="M80.6031 31.3438C78.5011 33.4258 75.9427 34.4668 72.9279 34.4668C69.9131 34.4668 67.3547 33.4258 65.2526 31.3438C63.1506 29.2617 62.0996 26.6933 62.0996 23.6386C62.0996 20.5838 63.1506 18.0154 65.2526 15.9334C67.3547 13.8513 69.9131 12.8103 72.9279 12.8103C75.9427 12.8103 78.5011 13.8513 80.6031 15.9334C82.7051 18.0154 83.7561 20.5838 83.7561 23.6386C83.7561 26.6933 82.7051 29.2617 80.6031 31.3438ZM68.5989 28.1008C69.7598 29.2501 71.2023 29.8264 72.9279 29.8264C74.6535 29.8264 76.0959 29.2517 77.2569 28.1008C78.4178 26.9498 78.9974 25.4624 78.9974 23.6386C78.9974 21.813 78.4178 20.3256 77.2569 19.1763C76.0959 18.027 74.6535 17.4507 72.9279 17.4507C71.2023 17.4507 69.7598 18.0254 68.5989 19.1763C67.438 20.3273 66.8583 21.8147 66.8583 23.6386C66.8583 25.4624 67.438 26.9515 68.5989 28.1008ZM100.567 34.0504H95.5089L90.7485 27.4895V34.0504H86.2862V13.225H90.7485V25.6906L95.2107 19.1747H100.417L95.0025 26.6117L100.566 34.0488L100.567 34.0504ZM105.298 28.3973C105.814 29.7864 107.003 30.4793 108.867 30.4793C110.076 30.4793 111.029 30.1029 111.724 29.3483L115.293 31.4004C113.826 33.4425 111.664 34.4652 108.807 34.4652C106.309 34.4652 104.31 33.7223 102.813 32.2332C101.315 30.7458 100.567 28.872 100.567 26.61C100.567 24.3681 101.307 22.4993 102.784 21.0019C104.262 19.5045 106.161 18.7549 108.481 18.7549C110.643 18.7549 112.443 19.5045 113.881 21.0019C115.318 22.4993 116.038 24.3681 116.038 26.61C116.038 27.2447 115.978 27.8393 115.86 28.3956H105.298V28.3973ZM105.208 25.066H111.604C111.167 23.4986 110.116 22.7158 108.451 22.7158C106.725 22.7158 105.644 23.4986 105.208 25.066ZM127.342 19.1747H132.103L127.014 33.604C126.181 35.9442 125.085 37.6199 123.726 38.6326C122.367 39.6436 120.637 40.1 118.535 40.0001V35.8343C119.566 35.8343 120.36 35.6511 120.915 35.2847C121.469 34.9182 121.916 34.2786 122.254 33.3659L116.333 19.1747H121.241L124.544 28.279L127.341 19.1747H127.342ZM163.43 32.1916C161.903 33.709 160.039 34.4668 157.837 34.4668C155.635 34.4668 153.771 33.709 152.244 32.1916C150.716 30.6742 149.953 28.8153 149.953 26.6134C149.953 24.4114 150.716 22.5526 152.244 21.0352C153.771 19.5178 155.635 18.7599 157.837 18.7599C160.039 18.7599 161.903 19.5178 163.43 21.0352C164.957 22.5526 165.72 24.4114 165.72 26.6134C165.72 28.8153 164.956 30.6742 163.43 32.1916ZM155.397 29.1418C156.051 29.7964 156.864 30.1229 157.837 30.1229C158.81 30.1229 159.622 29.7964 160.277 29.1418C160.932 28.4872 161.258 27.6444 161.258 26.6134C161.258 25.5824 160.932 24.7395 160.277 24.085C159.622 23.4304 158.81 23.1039 157.837 23.1039C156.864 23.1039 156.051 23.4304 155.397 24.085C154.742 24.7395 154.416 25.5824 154.416 26.6134C154.416 27.6444 154.742 28.4872 155.397 29.1418ZM172.176 23.5186C172.176 23.8168 172.429 24.0583 172.934 24.2482C173.44 24.4364 174.05 24.6246 174.763 24.8128C175.477 25.001 176.19 25.2442 176.905 25.5424C177.619 25.8405 178.229 26.3302 178.734 27.0148C179.24 27.6994 179.492 28.5572 179.492 29.5882C179.492 31.1955 178.897 32.4098 177.706 33.2326C176.517 34.0554 175.048 34.4668 173.304 34.4668C170.169 34.4668 168.037 33.2876 166.908 30.9274L170.775 28.7254C171.172 29.8963 172.015 30.481 173.304 30.481C174.375 30.481 174.911 30.1728 174.911 29.5582C174.911 29.2617 174.658 29.0136 174.153 28.8153C173.647 28.6171 173.037 28.4239 172.324 28.2357C171.61 28.0475 170.897 27.7993 170.182 27.4912C169.468 27.183 168.858 26.7033 168.354 26.0487C167.847 25.3941 167.596 24.5913 167.596 23.6386C167.596 22.0912 168.155 20.8919 169.276 20.0391C170.397 19.1863 171.781 18.7599 173.427 18.7599C174.656 18.7599 175.777 19.0331 176.79 19.5778C177.801 20.1224 178.616 20.9119 179.23 21.9429L175.423 23.995C174.946 23.1222 174.282 22.6858 173.429 22.6858C172.596 22.6858 172.18 22.964 172.18 23.5186H172.176ZM189.997 23.4587H186.932V28.7254C186.932 29.32 187.17 29.6965 187.647 29.8564C188.123 30.0146 188.906 30.0646 189.997 30.0046V34.0504C187.16 34.3486 185.196 34.0754 184.105 33.2326C183.014 32.3898 182.47 30.8874 182.47 28.7254V23.4587H180.09V19.1747H182.47V16.3481L186.932 15.0089V19.1747H189.997V23.4587ZM141.175 13.2234C143.219 13.2234 144.943 13.9179 146.352 15.3054C147.76 16.6945 148.464 18.3802 148.464 20.3623C148.464 22.346 147.76 24.0316 146.352 25.4208C144.943 26.8099 143.219 27.5028 141.175 27.5028H138.052V34.0488H133.292V13.2234H141.175ZM141.175 23.0406C141.908 23.0406 142.515 22.7824 142.989 22.2677C143.466 21.7514 143.704 21.1168 143.704 20.3639C143.704 19.6094 143.466 18.9748 142.989 18.4601C142.513 17.9454 141.908 17.6873 141.175 17.6873H138.052V23.0423H141.175V23.0406Z" fill="#2B2A29"/>
<path id="Vector_2" fill-rule="evenodd" clip-rule="evenodd" d="M23.8852 0.114845C37.077 0.114845 47.7703 10.8082 47.7703 24C47.7703 37.1918 37.077 47.8852 23.8852 47.8852C10.6934 47.8852 0 37.1918 0 24C0 10.8082 10.6934 0.114845 23.8852 0.114845ZM23.8852 9.41573C31.9401 9.41573 38.4694 15.945 38.4694 24C38.4694 32.055 31.9401 38.5843 23.8852 38.5843C15.8302 38.5843 9.30089 32.055 9.30089 24C9.30089 15.945 15.8302 9.41573 23.8852 9.41573Z" fill="url(#paint0_linear_10291_1301)"/>
<path id="Vector_3" opacity="0.2" fill-rule="evenodd" clip-rule="evenodd" d="M40.4714 41.186C38.4743 43.1131 36.1408 44.6971 33.5707 45.8381L26.6816 38.3144C29.5832 37.7514 32.1766 36.329 34.1886 34.3236L40.4731 41.186H40.4714Z" fill="#1F2428"/>
<path id="Vector_4" fill-rule="evenodd" clip-rule="evenodd" d="M51.0882 0.368014L42.357 8.85607C40.2766 6.32098 37.6832 4.22062 34.7367 2.71489L37.1685 0.366348H51.0882V0.368014ZM35.6495 15.377L27.3646 23.4303L49.8856 47.2922H36.5922L13.6931 23.0306L27.363 9.8338C30.7392 10.66 33.6524 12.6604 35.6478 15.377H35.6495Z" fill="url(#paint1_linear_10291_1301)"/>
<path id="Vector_5" opacity="0.2" fill-rule="evenodd" clip-rule="evenodd" d="M26.6084 10.5633C29.9796 11.3995 32.8878 13.4066 34.8749 16.1299L35.6494 15.377C33.654 12.6604 30.7408 10.66 27.3646 9.8338L26.6084 10.5633Z" fill="#1F2428"/>
</g>
</g>
<defs>
<linearGradient id="paint0_linear_10291_1301" x1="0.612057" y1="47.8852" x2="54.7001" y2="37.9887" gradientUnits="userSpaceOnUse">
<stop stop-color="#5B52A3"/>
<stop offset="1" stop-color="#40B8EA"/>
</linearGradient>
<linearGradient id="paint1_linear_10291_1301" x1="13.6931" y1="23.0306" x2="49.9522" y2="23.0306" gradientUnits="userSpaceOnUse">
<stop stop-color="#54E1AB"/>
<stop offset="1" stop-color="#7EEEC1"/>
</linearGradient>
</defs>
</svg>
